<svg xmlns="http://www.w3.org/2000/svg" xmlns:xlink="http://www.w3.org/1999/xlink" aria-hidden="true" role="img" class="iconify iconify--logos" width="35.93" height="32" preserveAspectRatio="xMidYMid meet" viewBox="0 0 256 228"><path fill="#00D8FF" d="M210.483 73.824a171.49 171.49 0 0 0-8.24-2.597c.465-1.9.893-3.777 1.273-5.621c6.238-30.281 2.16-54.676-11.769-62.708c-13.355-7.7-35.196.329-57.254 19.526a171.23 171.23 0 0 0-6.375 5.848a155.866 155.866 0 0 0-4.241-3.917C100.759 3.829 77.587-0.822 63.668 7.472C50.335 15.417 46.427 39.22 52.588 69.124c.84 4.096 1.781 8.232 2.815 12.383c-2.718.847-5.335 1.754-7.84 2.72c-28.382 10.9-47.13 27.574-47.13 44.565c0 17.694 19.521 35.228 49.814 46.494c2.043.763 4.16 1.48 6.335 2.15c-1.074 4.417-2.017 8.79-2.816 13.078c-6.024 32.122-1.993 55.319 11.447 63.043c13.702 7.888 37.059-.473 59.777-19.72c2.115-1.79 4.25-3.67 6.406-5.632c2.32 2.123 4.691 4.17 7.115 6.123c22.26 17.93 44.581 25.618 57.681 17.794c13.38-7.985 17.649-32.537 11.26-63.197c-.737-3.54-1.558-7.13-2.456-10.75c1.638-.59 3.23-1.197 4.768-1.822c31.132-11.524 51.343-29.264 51.343-47.249c0-17.537-19.628-34.685-49.24-45.978ZM144.292 68.897l-.024-.006c-.592.021-1.185.047-1.778.078c-2.301.12-4.62.312-6.955.568c-.532-2.101-1.147-4.17-1.846-6.199c-.75-2.174-1.582-4.31-2.49-6.408c3.624-.456 7.172-.8 10.615-1.033Zm-13.632 2.013c.74 1.942 1.44 3.928 2.097 5.955c-2.688.653-5.43 1.402-8.215 2.248c-2.785.846-5.613 1.79-8.483 2.83c1.23-2.532 2.54-5.01 3.928-7.43c1.388-2.42 2.888-4.782 4.448-7.08c2.08.13 4.144.31 6.225.477Zm-10.424 16.112c-3.732 1.356-7.548 2.83-11.438 4.42c-3.89 1.59-7.854 3.295-11.89 5.115c-1.26-2.532-2.44-5.11-3.54-7.73c-1.1-2.62-2.12-5.28-3.06-7.98c3.732-1.356 7.548-2.83 11.438-4.42c3.89-1.59 7.854-3.295 11.89-5.115c1.26 2.532 2.44 5.11 3.54 7.73c1.1 2.62 2.12 5.28 3.06 7.98Zm-22.928 9.535c-4.036 2.18-8.154 4.48-12.354 6.9c-4.2 2.42-8.482 4.96-12.846 7.62c-.74-1.942-1.44-3.928-2.097-5.955c2.688-.653 5.43-1.402 8.215-2.248c2.785-.846 5.613-1.79 8.483-2.83c-1.23 2.532-2.54 5.01-3.928 7.43c-1.388 2.42-2.888 4.782-4.448 7.08c-2.08-.13-4.144-.31-6.225-.477Zm10.424-16.112c3.732-1.356 7.548-2.83 11.438-4.42c3.89-1.59 7.854-3.295 11.89-5.115c1.26 2.532 2.44 5.11 3.54 7.73c1.1 2.62 2.12 5.28 3.06 7.98c-3.732 1.356-7.548 2.83-11.438 4.42c-3.89 1.59-7.854 3.295-11.89 5.115c-1.26-2.532-2.44-5.11-3.54-7.73c-1.1-2.62-2.12-5.28-3.06-7.98Z"/><path fill="#00D8FF" d="M128 90.808c20.4 0 36.92 16.52 36.92 36.92s-16.52 36.92-36.92 36.92s-36.92-16.52-36.92-36.92s16.52-36.92 36.92-36.92Z"/></svg>